# xmcd
#
# Track frame offsets: 
#        182
#        11682
#        22582
#        36757
#        47482
#        58582
#        70582
#        79682
#        89532
#        103282
#        115082
#        125382
#        139857
#        153407
#        165882
#        178207
#        191432
#        207082
#        220857
#        234182
#        245057
#
# Disc length: 3424 seconds
#
# Revision: 3
# Processed by: cddbd v1.5.2PL0 Copyright (c) Steve Scherf et al.
# Submitted via: ExactAudioCopyFreeDBPlugin 1.0
#
DISCID=0f0d5e15
DTITLE=Various Artist - GSCD49 - British Soul Volume 1
DYEAR=1900
DGENRE=Northern Soul
TTITLE0=Levi Jackson - This Beautiful Day
TTITLE1=Carl Douglas - Serving A Sentence Of Life
TTITLE2=Jimmy Thomas - The Beautiful Night
TTITLE3=Kenny Bernard - What Love Brings
TTITLE4=Frankie And Johnny - I'll Hold You
TTITLE5=Sue Lynn - Don't Pity Me
TTITLE6=Lorraine Silva - Lost Summer Love
TTITLE7=Jason Knight - Our Love Is Getting Stronger
TTITLE8=Paula Parfitt - Love Is Wonderful
TTITLE9=Helen Shapiro - Stop And You'll Become Aware
TTITLE10=Tammy St John - Nobody Knows What's Going On (In My Mind But 
TTITLE10=Me)
TTITLE11=P.P. Arnold - Everything's Gonna Be Alright
TTITLE12=A Band Of Angels - Invitation
TTITLE13=Ebony Eyes - If You Knew
TTITLE14=Herbie Goins and The Nightimers - Number One In Your Heart
TTITLE15=The Notations - Need Your Love
TTITLE16=Kenny Lynch - Movin' Away
TTITLE17=The Chants - Baby I Don't Need Your Love
TTITLE18=Tony Colton and The Big Boss Band - I Stand Accused
TTITLE19=Soul Joe Clements - Ever Ever
TTITLE20=Ray Merrell - Tears Of Joy
EXTD=
EXTT0=
EXTT1=
EXTT2=
EXTT3=
EXTT4=
EXTT5=
EXTT6=
EXTT7=
EXTT8=
EXTT9=
EXTT10=
EXTT11=
EXTT12=
EXTT13=
EXTT14=
EXTT15=
EXTT16=
EXTT17=
EXTT18=
EXTT19=
EXTT20=
PLAYORDER=
